<mxfile host="app.diagrams.net" modified="2023-12-25T16:36:52.315Z" agent="Mozilla/5.0 (Windows NT 10.0; Win64; x64) AppleWebKit/537.36 (KHTML, like Gecko) Chrome/120.0.0.0 Safari/537.36" etag="nY4GNL1yvn1fM1xyp4sz" version="22.1.11" type="device">
  <diagram id="zjK6OgsOYJaDhMb_vuTh" name="Page-1">
    <mxGraphModel dx="875" dy="451" grid="1" gridSize="10" guides="1" tooltips="1" connect="1" arrows="1" fold="1" page="1" pageScale="1" pageWidth="827" pageHeight="1169" math="0" shadow="0">
      <root>
        <mxCell id="0" />
        <mxCell id="1" parent="0" />
        <mxCell id="9gInP35kRoFo59r-6vyA-41" value="" style="rounded=0;whiteSpace=wrap;html=1;fillColor=none;" parent="1" vertex="1">
          <mxGeometry x="80" y="10" width="540" height="510" as="geometry" />
        </mxCell>
        <mxCell id="9gInP35kRoFo59r-6vyA-7" value="" style="rounded=0;whiteSpace=wrap;html=1;" parent="1" vertex="1">
          <mxGeometry x="105" y="100" width="10" height="400" as="geometry" />
        </mxCell>
        <mxCell id="9gInP35kRoFo59r-6vyA-8" value="" style="rounded=0;whiteSpace=wrap;html=1;" parent="1" vertex="1">
          <mxGeometry x="325" y="150" width="10" height="350" as="geometry" />
        </mxCell>
        <mxCell id="9gInP35kRoFo59r-6vyA-9" value="" style="rounded=0;whiteSpace=wrap;html=1;" parent="1" vertex="1">
          <mxGeometry x="545" y="120" width="10" height="380" as="geometry" />
        </mxCell>
        <mxCell id="9gInP35kRoFo59r-6vyA-1" value="Korisnik&lt;br&gt;" style="shape=umlActor;verticalLabelPosition=bottom;verticalAlign=top;html=1;outlineConnect=0;" parent="1" vertex="1">
          <mxGeometry x="100" y="30" width="20" height="40" as="geometry" />
        </mxCell>
        <mxCell id="9gInP35kRoFo59r-6vyA-13" style="edgeStyle=orthogonalEdgeStyle;rounded=0;orthogonalLoop=1;jettySize=auto;html=1;endArrow=none;endFill=0;dashed=1;" parent="1" source="9gInP35kRoFo59r-6vyA-4" target="9gInP35kRoFo59r-6vyA-8" edge="1">
          <mxGeometry relative="1" as="geometry" />
        </mxCell>
        <mxCell id="9gInP35kRoFo59r-6vyA-4" value="Glavni&lt;br&gt;prozor" style="rounded=0;whiteSpace=wrap;html=1;" parent="1" vertex="1">
          <mxGeometry x="280" y="40" width="100" height="40" as="geometry" />
        </mxCell>
        <mxCell id="9gInP35kRoFo59r-6vyA-17" style="edgeStyle=orthogonalEdgeStyle;rounded=0;orthogonalLoop=1;jettySize=auto;html=1;endArrow=none;endFill=0;dashed=1;" parent="1" source="9gInP35kRoFo59r-6vyA-5" target="9gInP35kRoFo59r-6vyA-9" edge="1">
          <mxGeometry relative="1" as="geometry" />
        </mxCell>
        <mxCell id="9gInP35kRoFo59r-6vyA-5" value="Aplikacija" style="rounded=0;whiteSpace=wrap;html=1;" parent="1" vertex="1">
          <mxGeometry x="490" y="40" width="120" height="40" as="geometry" />
        </mxCell>
        <mxCell id="9gInP35kRoFo59r-6vyA-19" value="1. Korisnik pokreće aplikaciju i uloguje se" style="endArrow=classic;html=1;rounded=0;entryX=0;entryY=0;entryDx=0;entryDy=0;exitX=0.906;exitY=0.053;exitDx=0;exitDy=0;exitPerimeter=0;" parent="1" source="9gInP35kRoFo59r-6vyA-7" target="9gInP35kRoFo59r-6vyA-9" edge="1">
          <mxGeometry x="-0.0254" y="10" width="50" height="50" relative="1" as="geometry">
            <mxPoint x="120" y="120" as="sourcePoint" />
            <mxPoint x="540" y="120" as="targetPoint" />
            <mxPoint as="offset" />
          </mxGeometry>
        </mxCell>
        <mxCell id="9gInP35kRoFo59r-6vyA-22" value="&lt;br&gt;&lt;span style=&quot;color: rgb(0, 0, 0); font-family: Helvetica; font-size: 11px; font-style: normal; font-variant-ligatures: normal; font-variant-caps: normal; font-weight: 400; letter-spacing: normal; orphans: 2; text-align: center; text-indent: 0px; text-transform: none; widows: 2; word-spacing: 0px; -webkit-text-stroke-width: 0px; text-decoration-thickness: initial; text-decoration-style: initial; text-decoration-color: initial; float: none; display: inline !important;&quot;&gt;2. Prikaz sadržaja glavnog prozora&lt;/span&gt;" style="edgeStyle=orthogonalEdgeStyle;rounded=0;orthogonalLoop=1;jettySize=auto;html=1;exitX=0;exitY=0.25;exitDx=0;exitDy=0;entryX=1.043;entryY=0.314;entryDx=0;entryDy=0;entryPerimeter=0;dashed=1;labelBackgroundColor=none;verticalAlign=middle;" parent="1" edge="1">
          <mxGeometry x="0.005" y="-14" relative="1" as="geometry">
            <mxPoint x="545" y="155.00000000000023" as="sourcePoint" />
            <mxPoint x="335.42999999999984" y="154.44000000000005" as="targetPoint" />
            <mxPoint as="offset" />
          </mxGeometry>
        </mxCell>
        <mxCell id="9gInP35kRoFo59r-6vyA-26" value="7. Uneti podaci se čuvaju" style="edgeStyle=orthogonalEdgeStyle;rounded=0;orthogonalLoop=1;jettySize=auto;html=1;entryX=0;entryY=0.5;entryDx=0;entryDy=0;align=center;labelPosition=center;verticalLabelPosition=middle;verticalAlign=middle;spacing=2;" parent="1" edge="1">
          <mxGeometry y="10" relative="1" as="geometry">
            <mxPoint x="335" y="340" as="sourcePoint" />
            <mxPoint x="545" y="340" as="targetPoint" />
            <mxPoint as="offset" />
          </mxGeometry>
        </mxCell>
        <mxCell id="9gInP35kRoFo59r-6vyA-27" value="&lt;span style=&quot;color: rgb(0, 0, 0); font-family: Helvetica; font-size: 11px; font-style: normal; font-variant-ligatures: normal; font-variant-caps: normal; font-weight: 400; letter-spacing: normal; orphans: 2; text-align: center; text-indent: 0px; text-transform: none; widows: 2; word-spacing: 0px; -webkit-text-stroke-width: 0px; text-decoration-thickness: initial; text-decoration-style: initial; text-decoration-color: initial; float: none; display: inline !important;&quot;&gt;10. Prikaz sačuvanog sadržaj&lt;/span&gt;" style="edgeStyle=orthogonalEdgeStyle;rounded=0;orthogonalLoop=1;jettySize=auto;html=1;exitX=0;exitY=0.25;exitDx=0;exitDy=0;entryX=1.043;entryY=0.314;entryDx=0;entryDy=0;entryPerimeter=0;dashed=1;labelBackgroundColor=none;verticalAlign=middle;" parent="1" edge="1">
          <mxGeometry x="-0.0017" y="-5" relative="1" as="geometry">
            <mxPoint x="545" y="475.0000000000002" as="sourcePoint" />
            <mxPoint x="335.42999999999984" y="474.44000000000005" as="targetPoint" />
            <mxPoint as="offset" />
          </mxGeometry>
        </mxCell>
        <mxCell id="9gInP35kRoFo59r-6vyA-30" value="11. Sadržaj se prikazuje korisniku" style="edgeStyle=orthogonalEdgeStyle;rounded=0;orthogonalLoop=1;jettySize=auto;html=1;entryX=0.922;entryY=0.789;entryDx=0;entryDy=0;entryPerimeter=0;dashed=1;verticalAlign=middle;" parent="1" edge="1">
          <mxGeometry x="-0.0994" y="-10" relative="1" as="geometry">
            <mxPoint x="325" y="490.0344827586208" as="sourcePoint" />
            <mxPoint x="114.21999999999991" y="489.81999999999994" as="targetPoint" />
            <mxPoint as="offset" />
          </mxGeometry>
        </mxCell>
        <mxCell id="9gInP35kRoFo59r-6vyA-34" value="loop" style="text;html=1;strokeColor=none;fillColor=none;align=center;verticalAlign=middle;whiteSpace=wrap;rounded=0;" parent="1" vertex="1">
          <mxGeometry x="125" y="260" width="30" height="10" as="geometry" />
        </mxCell>
        <mxCell id="9gInP35kRoFo59r-6vyA-35" value="" style="rounded=0;whiteSpace=wrap;html=1;fillColor=none;" parent="1" vertex="1">
          <mxGeometry x="120" y="259" width="40" height="10" as="geometry" />
        </mxCell>
        <mxCell id="9gInP35kRoFo59r-6vyA-37" value="&lt;font style=&quot;font-size: 10px;&quot;&gt;3. Korisnik selektuje opciju pisanja zadataka&lt;br&gt;To-Do Liste&lt;/font&gt;" style="endArrow=classic;html=1;rounded=0;entryX=0;entryY=0;entryDx=0;entryDy=0;exitX=0.922;exitY=0.236;exitDx=0;exitDy=0;exitPerimeter=0;" parent="1" edge="1">
          <mxGeometry x="0.0058" y="20" width="50" height="50" relative="1" as="geometry">
            <mxPoint x="114.22000000000003" y="209.67999999999995" as="sourcePoint" />
            <mxPoint x="325" y="210" as="targetPoint" />
            <mxPoint as="offset" />
          </mxGeometry>
        </mxCell>
        <mxCell id="PruIE1o2q9l-gxGqf5eE-1" value="[dok korisnik ne unese sve zadatke]" style="text;html=1;strokeColor=none;fillColor=none;align=center;verticalAlign=middle;whiteSpace=wrap;rounded=0;fontStyle=1;fontSize=9;" parent="1" vertex="1">
          <mxGeometry x="160" y="260" width="170" height="9" as="geometry" />
        </mxCell>
        <mxCell id="SBhl3xOvMXeYf3Fg4owB-3" value="" style="rounded=0;whiteSpace=wrap;html=1;fillColor=none;" parent="1" vertex="1">
          <mxGeometry x="120" y="290" width="40" height="10" as="geometry" />
        </mxCell>
        <mxCell id="SBhl3xOvMXeYf3Fg4owB-7" value="8. Korisnik stiklira obavljen zadatak" style="endArrow=classic;html=1;rounded=0;entryX=0;entryY=0;entryDx=0;entryDy=0;exitX=1.011;exitY=0.42;exitDx=0;exitDy=0;exitPerimeter=0;" parent="1" edge="1">
          <mxGeometry x="-0.0281" y="10" width="50" height="50" relative="1" as="geometry">
            <mxPoint x="115.11000000000001" y="399.6" as="sourcePoint" />
            <mxPoint x="325" y="400" as="targetPoint" />
            <mxPoint as="offset" />
          </mxGeometry>
        </mxCell>
        <mxCell id="SBhl3xOvMXeYf3Fg4owB-8" value="9. Uneta izmena se čuva" style="edgeStyle=orthogonalEdgeStyle;rounded=0;orthogonalLoop=1;jettySize=auto;html=1;entryX=0;entryY=0.5;entryDx=0;entryDy=0;align=center;labelPosition=center;verticalLabelPosition=middle;verticalAlign=middle;spacing=2;" parent="1" edge="1">
          <mxGeometry y="10" relative="1" as="geometry">
            <mxPoint x="335" y="420" as="sourcePoint" />
            <mxPoint x="545" y="420" as="targetPoint" />
            <mxPoint as="offset" />
          </mxGeometry>
        </mxCell>
        <mxCell id="2l0N4sSI_JEI6yD-O1KZ-1" value="alt" style="text;html=1;strokeColor=none;fillColor=none;align=center;verticalAlign=middle;whiteSpace=wrap;rounded=0;" vertex="1" parent="1">
          <mxGeometry x="110" y="280" width="60" height="30" as="geometry" />
        </mxCell>
        <mxCell id="2l0N4sSI_JEI6yD-O1KZ-2" value="[korisnik unosi zadatak]" style="text;html=1;strokeColor=none;fillColor=none;align=center;verticalAlign=middle;whiteSpace=wrap;rounded=0;fontSize=9;" vertex="1" parent="1">
          <mxGeometry x="155" y="290" width="105" height="10" as="geometry" />
        </mxCell>
        <mxCell id="9gInP35kRoFo59r-6vyA-24" value="6. Korisnik unosi podatke zadataka" style="endArrow=classic;html=1;rounded=0;entryX=0;entryY=0;entryDx=0;entryDy=0;exitX=1.011;exitY=0.42;exitDx=0;exitDy=0;exitPerimeter=0;" parent="1" edge="1">
          <mxGeometry x="0.0946" y="10" width="50" height="50" relative="1" as="geometry">
            <mxPoint x="115.11000000000001" y="329.6" as="sourcePoint" />
            <mxPoint x="325" y="330" as="targetPoint" />
            <mxPoint as="offset" />
          </mxGeometry>
        </mxCell>
        <mxCell id="2l0N4sSI_JEI6yD-O1KZ-4" value="" style="endArrow=none;dashed=1;html=1;rounded=0;exitX=0;exitY=0.5;exitDx=0;exitDy=0;entryX=1;entryY=0.5;entryDx=0;entryDy=0;strokeWidth=2;" edge="1" parent="1" source="SBhl3xOvMXeYf3Fg4owB-2" target="SBhl3xOvMXeYf3Fg4owB-2">
          <mxGeometry width="50" height="50" relative="1" as="geometry">
            <mxPoint x="360" y="440" as="sourcePoint" />
            <mxPoint x="410" y="390" as="targetPoint" />
          </mxGeometry>
        </mxCell>
        <mxCell id="2l0N4sSI_JEI6yD-O1KZ-5" value="[korisnik brise zadatak]" style="text;html=1;strokeColor=none;fillColor=none;align=center;verticalAlign=middle;whiteSpace=wrap;rounded=0;fontSize=9;" vertex="1" parent="1">
          <mxGeometry x="115" y="370" width="105" height="10" as="geometry" />
        </mxCell>
        <mxCell id="SBhl3xOvMXeYf3Fg4owB-2" value="" style="rounded=1;whiteSpace=wrap;html=1;fillColor=none;" parent="1" vertex="1">
          <mxGeometry x="100" y="290" width="480" height="150" as="geometry" />
        </mxCell>
        <mxCell id="9gInP35kRoFo59r-6vyA-33" value="" style="rounded=1;whiteSpace=wrap;html=1;align=center;labelPosition=center;verticalLabelPosition=middle;verticalAlign=middle;fillColor=none;" parent="1" vertex="1">
          <mxGeometry x="90" y="270" width="520" height="190" as="geometry" />
        </mxCell>
      </root>
    </mxGraphModel>
  </diagram>
</mxfile>
